{
  "accessors": [
    {
      "bufferView": 2,
      "componentType": 5126,
      "count": 27,
      "max": [
        4.1128044128417969,
        90.547714233398438,
        26.796150207519531
      ],
      "min": [
        -49.872314453125,
        90.547714233398438,
        -26.795568466186523
      ],
      "type": "VEC3"
    },
    {
      "bufferView": 2,
      "byteOffset": 324,
      "componentType": 5126,
      "count": 27,
      "max": [
        0,
        1,
        1.7502134141977876e-07
      ],
      "min": [
        0,
        1,
        -7.0009332375775557e-07
      ],
      "type": "VEC3"
    },
    {
      "bufferView": 3,
      "componentType": 5126,
      "count": 27,
      "max": [
        1,
        2.3660546720656594e-13,
        1.178025172521302e-06,
        1
      ],
      "min": [
        1,
        -2.2983161597836532e-13,
        -1.1587186463657417e-06,
        1
      ],
      "type": "VEC4"
    },
    {
      "bufferView": 1,
      "componentType": 5126,
      "count": 27,
      "max": [
        0.97958821058273315,
        0.96695148944854736
      ],
      "min": [
        0.023973762989044189,
        0.018301036208868027
      ],
      "type": "VEC2"
    },
    {
      "bufferView": 0,
      "componentType": 5125,
      "count": 78,
      "max": [
        26
      ],
      "min": [
        0
      ],
      "type": "SCALAR"
    },
    {
      "bufferView": 2,
      "byteOffset": 648,
      "componentType": 5126,
      "count": 297,
      "max": [
        8.0182876586914062,
        96.582778930664062,
        30.672878265380859
      ],
      "min": [
        -53.777732849121094,
        0,
        -30.672683715820312
      ],
      "type": "VEC3"
    },
    {
      "bufferView": 2,
      "byteOffset": 4212,
      "componentType": 5126,
      "count": 297,
      "max": [
        1,
        0.99580115079879761,
        0.99270892143249512
      ],
      "min": [
        -1,
        -0.74892663955688477,
        -0.99270772933959961
      ],
      "type": "VEC3"
    },
    {
      "bufferView": 3,
      "byteOffset": 432,
      "componentType": 5126,
      "count": 297,
      "max": [
        0.99759894609451294,
        0.28430187702178955,
        0.99999845027923584,
        1
      ],
      "min": [
        -0.99665099382400513,
        -0.26469328999519348,
        -0.99998420476913452,
        1
      ],
      "type": "VEC4"
    },
    {
      "bufferView": 1,
      "byteOffset": 216,
      "componentType": 5126,
      "count": 297,
      "max": [
        0.99142861366271973,
        0.60224336385726929
      ],
      "min": [
        0.0064995288848876953,
        0.011202732101082802
      ],
      "type": "VEC2"
    },
    {
      "bufferView": 0,
      "byteOffset": 312,
      "componentType": 5125,
      "count": 1560,
      "max": [
        296
      ],
      "min": [
        0
      ],
      "type": "SCALAR"
    },
    {
      "bufferView": 2,
      "byteOffset": 7776,
      "componentType": 5126,
      "count": 2618,
      "max": [
        39.363056182861328,
        160.686767578125,
        66.762786865234375
      ],
      "min": [
        -85.89453125,
        77.903160095214844,
        -62.975437164306641
      ],
      "type": "VEC3"
    },
    {
      "bufferView": 2,
      "byteOffset": 39192,
      "componentType": 5126,
      "count": 2618,
      "max": [
        0.99991679191589355,
        0.99970638751983643,
        0.99704068899154663
      ],
      "min": [
        -0.99989008903503418,
        -0.99970638751983643,
        -0.9971044659614563
      ],
      "type": "VEC3"
    },
    {
      "bufferView": 3,
      "byteOffset": 5184,
      "componentType": 5126,
      "count": 2618,
      "max": [
        1,
        0.96841591596603394,
        0.99689143896102905,
        1
      ],
      "min": [
        -1,
        -0.94557815790176392,
        -0.99818050861358643,
        -1
      ],
      "type": "VEC4"
    },
    {
      "bufferView": 1,
      "byteOffset": 2592,
      "componentType": 5126,
      "count": 2618,
      "max": [
        0.99901217222213745,
        1.0001059770584106
      ],
      "min": [
        0.0017746612429618835,
        0.0020049102604389191
      ],
      "type": "VEC2"
    },
    {
      "bufferView": 0,
      "byteOffset": 6552,
      "componentType": 5125,
      "count": 9276,
      "max": [
        2617
      ],
      "min": [
        0
      ],
      "type": "SCALAR"
    }
  ],
  "asset": {
    "extras": {
      "author": "DevonCarlson (https://sketchfab.com/devoncarlson)",
      "license": "CC-BY-4.0 (http://creativecommons.org/licenses/by/4.0/)",
      "source": "https://sketchfab.com/3d-models/tall-potted-house-plant-9d67ee5efd7e414ebf81a3dcc6bf7ada",
      "title": "Tall Potted House Plant"
    },
    "generator": "Sketchfab-9.80.0",
    "version": "2.0"
  },
  "bufferViews": [
    {
      "buffer": 0,
      "byteLength": 43656,
      "byteOffset": 0,
      "name": "floatBufferViews",
      "target": 34963
    },
    {
      "buffer": 0,
      "byteLength": 23536,
      "byteOffset": 43656,
      "byteStride": 8,
      "name": "floatBufferViews",
      "target": 34962
    },
    {
      "buffer": 0,
      "byteLength": 70608,
      "byteOffset": 67192,
      "byteStride": 12,
      "name": "floatBufferViews",
      "target": 34962
    },
    {
      "buffer": 0,
      "byteLength": 47072,
      "byteOffset": 137800,
      "byteStride": 16,
      "name": "floatBufferViews",
      "target": 34962
    }
  ],
  "buffers": [
    {
      "byteLength": 184872,
      "uri": "scene.bin"
    }
  ],
  "images": [
    {
      "uri": "textures/phong4_baseColor.png"
    },
    {
      "uri": "textures/phong4_metallicRoughness.png"
    },
    {
      "uri": "textures/phong4_normal.png"
    },
    {
      "uri": "textures/phong1_metallicRoughness.png"
    },
    {
      "uri": "textures/phong1_normal.png"
    },
    {
      "uri": "textures/phong2_baseColor.png"
    },
    {
      "uri": "textures/phong2_metallicRoughness.png"
    },
    {
      "uri": "textures/phong2_normal.png"
    }
  ],
  "materials": [
    {
      "doubleSided": true,
      "name": "phong4",
      "normalTexture": {
        "index": 2,
        "scale": 1,
        "texCoord": 0
      },
      "occlusionTexture": {
        "index": 1,
        "strength": 1,
        "texCoord": 0
      },
      "pbrMetallicRoughness": {
        "baseColorFactor": [
          1,
          1,
          1,
          1
        ],
        "baseColorTexture": {
          "index": 0,
          "texCoord": 0
        },
        "metallicFactor": 1,
        "metallicRoughnessTexture": {
          "index": 1,
          "texCoord": 0
        },
        "roughnessFactor": 1
      }
    },
    {
      "doubleSided": true,
      "emissiveFactor": [
        0,
        0,
        0
      ],
      "name": "phong1",
      "normalTexture": {
        "index": 4,
        "scale": 1,
        "texCoord": 0
      },
      "pbrMetallicRoughness": {
        "baseColorFactor": [
          0.81930244403148555,
          0.81930244403148555,
          0.81930244403148555,
          1
        ],
        "metallicFactor": 1,
        "metallicRoughnessTexture": {
          "index": 3,
          "texCoord": 0
        },
        "roughnessFactor": 1
      }
    },
    {
      "alphaCutoff": 0.40000000000000002,
      "alphaMode": "MASK",
      "doubleSided": false,
      "name": "phong2",
      "normalTexture": {
        "index": 7,
        "scale": 1,
        "texCoord": 0
      },
      "occlusionTexture": {
        "index": 6,
        "strength": 1,
        "texCoord": 0
      },
      "pbrMetallicRoughness": {
        "baseColorFactor": [
          1,
          1,
          1,
          1
        ],
        "baseColorTexture": {
          "index": 5,
          "texCoord": 0
        },
        "metallicFactor": 1,
        "metallicRoughnessTexture": {
          "index": 6,
          "texCoord": 0
        },
        "roughnessFactor": 1
      }
    }
  ],
  "meshes": [
    {
      "name": "potTall_aglaonema_phong4_0",
      "primitives": [
        {
          "attributes": {
            "NORMAL": 1,
            "POSITION": 0,
            "TANGENT": 2,
            "TEXCOORD_0": 3
          },
          "indices": 4,
          "material": 0,
          "mode": 4
        }
      ]
    },
    {
      "name": "potTall_aglaonema_phong1_0",
      "primitives": [
        {
          "attributes": {
            "NORMAL": 6,
            "POSITION": 5,
            "TANGENT": 7,
            "TEXCOORD_0": 8
          },
          "indices": 9,
          "material": 1,
          "mode": 4
        }
      ]
    },
    {
      "name": "potTall_aglaonema_phong2_0",
      "primitives": [
        {
          "attributes": {
            "NORMAL": 11,
            "POSITION": 10,
            "TANGENT": 12,
            "TEXCOORD_0": 13
          },
          "indices": 14,
          "material": 2,
          "mode": 4
        }
      ]
    }
  ],
  "nodes": [
    {
      "children": [
        1
      ],
      "name": "RootNode (gltf orientation matrix)",
      "rotation": [
        -0.70710678118654746,
        -0,
        -0,
        0.70710678118654757
      ]
    },
    {
      "children": [
        2
      ],
      "name": "RootNode (model correction matrix)"
    },
    {
      "children": [
        3
      ],
      "matrix": [
        1,
        0,
        0,
        0,
        0,
        0,
        1,
        0,
        0,
        -1,
        0,
        0,
        0,
        0,
        0,
        1
      ],
      "name": "0e38c8e790e142f2b6e51977dc40cb14.fbx"
    },
    {
      "children": [
        4
      ],
      "name": "RootNode"
    },
    {
      "children": [
        5,
        6,
        7
      ],
      "matrix": [
        0.0099999997764825821,
        0,
        0,
        0,
        0,
        0.0099999997764825821,
        0,
        0,
        0,
        0,
        0.0099999997764825821,
        0,
        0,
        0,
        0,
        1
      ],
      "name": "potTall_aglaonema"
    },
    {
      "mesh": 0,
      "name": "potTall_aglaonema_phong4_0"
    },
    {
      "mesh": 1,
      "name": "potTall_aglaonema_phong1_0"
    },
    {
      "mesh": 2,
      "name": "potTall_aglaonema_phong2_0"
    }
  ],
  "samplers": [
    {
      "magFilter": 9729,
      "minFilter": 9987,
      "wrapS": 10497,
      "wrapT": 10497
    }
  ],
  "scene": 0,
  "scenes": [
    {
      "name": "OSG_Scene",
      "nodes": [
        0
      ]
    }
  ],
  "textures": [
    {
      "sampler": 0,
      "source": 0
    },
    {
      "sampler": 0,
      "source": 1
    },
    {
      "sampler": 0,
      "source": 2
    },
    {
      "sampler": 0,
      "source": 3
    },
    {
      "sampler": 0,
      "source": 4
    },
    {
      "sampler": 0,
      "source": 5
    },
    {
      "sampler": 0,
      "source": 6
    },
    {
      "sampler": 0,
      "source": 7
    }
  ]
}

